<mxfile host="app.diagrams.net" agent="Mozilla/5.0 (Windows NT 10.0; Win64; x64) AppleWebKit/537.36 (KHTML, like Gecko) Chrome/131.0.0.0 Safari/537.36" version="24.9.1">
  <diagram name="Page-1" id="ir7U9t9nsic5TWVXSfMc">
    <mxGraphModel dx="1644" dy="420" grid="1" gridSize="10" guides="1" tooltips="1" connect="1" arrows="1" fold="1" page="1" pageScale="1" pageWidth="850" pageHeight="1100" math="0" shadow="0">
      <root>
        <mxCell id="0" />
        <mxCell id="1" parent="0" />
        <mxCell id="WUXVKR-VH07binzli10D-1" value="" style="rounded=1;whiteSpace=wrap;html=1;" vertex="1" parent="1">
          <mxGeometry x="190" y="50" width="90" height="320" as="geometry" />
        </mxCell>
        <mxCell id="WUXVKR-VH07binzli10D-2" value="Gateway" style="text;html=1;align=center;verticalAlign=middle;whiteSpace=wrap;rounded=0;" vertex="1" parent="1">
          <mxGeometry x="205" y="330" width="60" height="30" as="geometry" />
        </mxCell>
        <mxCell id="WUXVKR-VH07binzli10D-3" value="" style="rounded=1;whiteSpace=wrap;html=1;" vertex="1" parent="1">
          <mxGeometry x="-190" y="80" width="120" height="260" as="geometry" />
        </mxCell>
        <mxCell id="WUXVKR-VH07binzli10D-4" value="FrontEnd" style="text;html=1;align=center;verticalAlign=middle;whiteSpace=wrap;rounded=0;" vertex="1" parent="1">
          <mxGeometry x="-170" y="290" width="60" height="30" as="geometry" />
        </mxCell>
        <mxCell id="WUXVKR-VH07binzli10D-5" value="AuthSevice" style="rounded=0;whiteSpace=wrap;html=1;" vertex="1" parent="1">
          <mxGeometry x="425" y="50" width="120" height="60" as="geometry" />
        </mxCell>
        <mxCell id="WUXVKR-VH07binzli10D-6" value="Agent Detaiks" style="rounded=0;whiteSpace=wrap;html=1;" vertex="1" parent="1">
          <mxGeometry x="470" y="220" width="120" height="60" as="geometry" />
        </mxCell>
        <mxCell id="WUXVKR-VH07binzli10D-7" value="" style="endArrow=classic;html=1;rounded=0;entryX=-0.022;entryY=0.206;entryDx=0;entryDy=0;entryPerimeter=0;" edge="1" parent="1" target="WUXVKR-VH07binzli10D-1">
          <mxGeometry width="50" height="50" relative="1" as="geometry">
            <mxPoint x="-80" y="150" as="sourcePoint" />
            <mxPoint x="-30" y="100" as="targetPoint" />
          </mxGeometry>
        </mxCell>
        <mxCell id="WUXVKR-VH07binzli10D-8" value="" style="endArrow=classic;html=1;rounded=0;entryX=0.058;entryY=0.611;entryDx=0;entryDy=0;entryPerimeter=0;" edge="1" parent="1" target="WUXVKR-VH07binzli10D-5">
          <mxGeometry width="50" height="50" relative="1" as="geometry">
            <mxPoint x="270" y="110" as="sourcePoint" />
            <mxPoint x="538" y="76" as="targetPoint" />
          </mxGeometry>
        </mxCell>
        <mxCell id="WUXVKR-VH07binzli10D-9" value="" style="strokeWidth=2;html=1;shape=mxgraph.flowchart.database;whiteSpace=wrap;" vertex="1" parent="1">
          <mxGeometry x="630" y="30" width="60" height="60" as="geometry" />
        </mxCell>
        <mxCell id="WUXVKR-VH07binzli10D-10" style="edgeStyle=orthogonalEdgeStyle;rounded=0;orthogonalLoop=1;jettySize=auto;html=1;entryX=0;entryY=0.5;entryDx=0;entryDy=0;entryPerimeter=0;" edge="1" parent="1" source="WUXVKR-VH07binzli10D-5" target="WUXVKR-VH07binzli10D-9">
          <mxGeometry relative="1" as="geometry" />
        </mxCell>
        <mxCell id="WUXVKR-VH07binzli10D-11" value="Canpaign" style="rounded=0;whiteSpace=wrap;html=1;" vertex="1" parent="1">
          <mxGeometry x="470" y="310" width="120" height="60" as="geometry" />
        </mxCell>
        <mxCell id="WUXVKR-VH07binzli10D-12" value="Client(P&amp;amp;C)" style="rounded=0;whiteSpace=wrap;html=1;" vertex="1" parent="1">
          <mxGeometry x="460" y="130" width="120" height="60" as="geometry" />
        </mxCell>
        <mxCell id="WUXVKR-VH07binzli10D-13" value="Policy service&lt;br&gt;Policy commencment&lt;br&gt;Policy Alterration" style="rounded=0;whiteSpace=wrap;html=1;" vertex="1" parent="1">
          <mxGeometry x="480" y="400" width="120" height="60" as="geometry" />
        </mxCell>
        <mxCell id="WUXVKR-VH07binzli10D-16" value="Bill Generation" style="rounded=0;whiteSpace=wrap;html=1;" vertex="1" parent="1">
          <mxGeometry x="480" y="500" width="120" height="60" as="geometry" />
        </mxCell>
      </root>
    </mxGraphModel>
  </diagram>
</mxfile>
